<?xml version="1.0" encoding="utf-8"?>
<!-- Generator: Adobe Illustrator 22.1.0, SVG Export Plug-In . SVG Version: 6.00 Build 0)  -->
<svg version="1.1" id="Layer_1" xmlns="http://www.w3.org/2000/svg" xmlns:xlink="http://www.w3.org/1999/xlink" x="0px" y="0px"
	 width="29px" height="42.9px" viewBox="0 0 29 42.9" style="enable-background:new 0 0 29 42.9;" xml:space="preserve">
<style type="text/css">
	.st0{fill:#FFFFFF;}
</style>
<g>
	<path class="st0" d="M16,29.2c0,1.8,0,3.5,0,5.3c0,0.4-0.1,0.5-0.5,0.5c-1.2,0-2.5,0-3.7,0c-0.4,0-0.5-0.1-0.5-0.5
		c0-3.5,0-7,0-10.5c0-0.5-0.2-0.6-0.6-0.6c-1,0-2,0-2.9,0c-0.3,0-0.4-0.1-0.4-0.4c0-1.3,0-2.6,0-3.8c0-0.3,0.1-0.3,0.4-0.3
		c1,0,2.1,0,3.1,0c0.3,0,0.4-0.1,0.4-0.4c0-1.1,0-2.3,0-3.4c0.1-3.3,2.2-5.4,5.6-5.5c1.1,0,2.2,0.1,3.2,0.1c0.3,0,0.5,0.1,0.5,0.5
		c0,1,0,2.1,0,3.1c0,0.4-0.1,0.5-0.5,0.5c-0.8,0-1.7-0.1-2.5,0c-1,0.2-1.5,0.6-1.6,1.6c-0.1,1,0,2.1,0,3.1c0,0.3,0.2,0.3,0.4,0.3
		c1.2,0,2.4,0,3.5,0c0.5,0,0.6,0.1,0.5,0.6c-0.2,1.2-0.3,2.3-0.5,3.5c0,0.4-0.2,0.5-0.6,0.5c-1,0-2,0-2.9,0c-0.4,0-0.5,0.1-0.5,0.5
		C16,25.6,16,27.4,16,29.2z"/>
</g>
</svg>
