<?xml version="1.0" encoding="utf-8"?>
<!-- Generator: Adobe Illustrator 22.1.0, SVG Export Plug-In . SVG Version: 6.00 Build 0)  -->
<svg version="1.1" id="Layer_1" xmlns="http://www.w3.org/2000/svg" xmlns:xlink="http://www.w3.org/1999/xlink" x="0px" y="0px"
	 width="96.1px" height="39.4px" viewBox="0 0 96.1 39.4" style="enable-background:new 0 0 96.1 39.4;" xml:space="preserve">
<style type="text/css">
	.st0{fill:#FFFFFF;}
</style>
<g>
	<polygon class="st0" points="38.7,27 38.7,35.5 7.6,35.5 7.6,4.6 38.7,4.6 38.7,17.4 39.3,17.4 39.3,4 7,4 7,36.1 39.3,36.1 
		39.3,27 	"/>
	<path class="st0" d="M59.8,19.4c-0.9,1.2-1.1,2.8-0.2,3.7c0.9,0.8,2.4,0.6,3.4-0.5c1-1.1,1.1-3,0.2-3.8
		C62.3,17.9,60.7,18.2,59.8,19.4z"/>
	<path class="st0" d="M68.3,8.9c-5-6.2-15.4-6.1-23.3,0.2c-7.9,6.3-10.3,16.5-5.3,22.7s15.4,6.1,23.3-0.2
		C70.8,25.3,73.2,15.1,68.3,8.9z M50.9,24.9c-3.1,3.4-7.8,4.1-10.5,1.7s-2.5-7.3,0.6-10.7s7.7-4,10.5-1.5c0.8,0.7,1.4,1.7,1.7,2.7
		l-4.6,1.5c0,0-2.5-2.5-4.3,0.7c0,0-1.7,3.2,0.9,4.1c0,0,0.8,0.2,1.7-0.4c0,0,0.3-0.2,0.5-0.7l-2,0.1l0.6-3.3h7.6
		C53.3,21.1,52.5,23.1,50.9,24.9z M55.7,26.7c-2.7-2.5-2.5-7.3,0.6-10.7s7.7-4,10.5-1.5s2.6,7.1-0.5,10.5
		C63.2,28.5,58.5,29.2,55.7,26.7z"/>
	<path class="st0" d="M75.6,27c-0.4,0-1.1-0.3-1.7-1c0,0-0.1-0.1-0.1-0.1c-0.1,0-0.1,0.1-0.1,0.2v4.4c0,0.1,0,0.2-0.2,0.2h-0.8
		c-0.1,0-0.2,0-0.2-0.2V19.8c0-0.1,0-0.2,0.2-0.2h0.6c0.1,0,0.2,0,0.2,0.2v0.7c0,0.1,0.1,0.2,0.1,0.2c0,0,0.1,0,0.1-0.1
		c0.6-0.7,1.2-1,1.7-1c1.8,0,2.9,1.1,2.9,2.7v1.9C78.4,25.9,77.2,27,75.6,27z M77.2,22.3c0-1-0.8-1.8-1.8-1.8c-1,0-1.8,0.8-1.8,1.8
		v1.9c0,1,0.8,1.8,1.8,1.8c1,0,1.8-0.8,1.8-1.8V22.3z"/>
	<path class="st0" d="M81.2,27h-0.8c-0.1,0-0.2,0-0.2-0.2V16.6c0-0.1,0-0.2,0.2-0.2h0.8c0.1,0,0.2,0,0.2,0.2v10.2
		C81.3,27,81.3,27,81.2,27z"/>
	<path class="st0" d="M88.3,26.3c-0.4,0.5-1.1,0.9-2.3,0.9c-1.8,0-2.9-1.1-2.9-2.7v-2.3c0-1.6,1.1-2.7,2.9-2.7
		c1.1,0,1.8,0.3,2.2,0.9c0.2,0.2,0.3,0.5,0.3,0.6c0,0.1,0,0.1-0.1,0.1l-0.6,0.3c-0.1,0-0.1,0.1-0.2,0.1c0,0-0.1,0-0.1-0.1
		c-0.4-0.6-1-0.9-1.6-0.9c-1,0-1.8,0.8-1.8,1.8v2.3c0,1,0.8,1.8,1.8,1.8c0.6,0,1.2-0.3,1.6-1c0,0,0.1-0.1,0.1-0.1
		c0.1,0,0.1,0,0.2,0.1l0.6,0.3c0.1,0,0.1,0.1,0.1,0.1S88.5,26,88.3,26.3z"/>
	<path class="st0" d="M18.3,11.4v5.2h3.5v-5.2c0,0,4.5,0,8.6,0s4.7,5.1,4.7,5.1c0,3.7-2.9,4.5-2.9,4.5l3.8,6.2h-6l-2.6-4.4v4.4h-5.6
		v-5.5h-3.5v5.5h-5.7l0.1-15.8L18.3,11.4z M27.4,15.5v3.2c0,0,2.5,0.3,2.5-1.6C29.9,17.2,29.9,15.4,27.4,15.5z"/>
</g>
</svg>
