<?xml version="1.0" encoding="utf-8"?>
<!-- Generator: Adobe Illustrator 22.1.0, SVG Export Plug-In . SVG Version: 6.00 Build 0)  -->
<svg version="1.1" id="Layer_1" xmlns="http://www.w3.org/2000/svg" xmlns:xlink="http://www.w3.org/1999/xlink" x="0px" y="0px"
	 width="29px" height="42.9px" viewBox="0 0 29 42.9" style="enable-background:new 0 0 29 42.9;" xml:space="preserve">
<style type="text/css">
	.st0{fill:#FFFFFF;}
</style>
<g>
	<path class="st0" d="M15.9,21.9c0.8-0.9,1.6-1.7,2.8-2c2.9-0.8,6.7,0.1,7.5,4.8c0.1,0.9,0.1,1.9,0.1,2.8c0,2.4,0,4.7,0,7.1
		c0,0.4-0.1,0.6-0.6,0.5c-1.3,0-2.6,0-4,0c-0.5,0-0.5-0.1-0.5-0.6c0-2.5,0-4.9,0-7.4c0-0.5,0-1.1-0.2-1.6c-0.2-0.9-0.7-1.6-1.7-1.9
		c-1-0.3-1.9,0-2.7,0.8c-0.6,0.6-0.8,1.4-0.8,2.2c0,2.6,0,5.3,0,7.9c0,0.4-0.1,0.5-0.5,0.5c-1.3,0-2.6,0-4,0c-0.4,0-0.5-0.1-0.5-0.5
		c0-4.7,0-9.5,0-14.2c0-0.4,0.1-0.4,0.4-0.4c1.4,0,2.7,0,4.1,0c0.4,0,0.5,0.1,0.5,0.5C15.9,21,15.9,21.4,15.9,21.9z"/>
	<path class="st0" d="M8.1,27.6c0,2.3,0,4.7,0,7c0,0.4-0.1,0.5-0.5,0.5c-1.4,0-2.7,0-4.1,0c-0.3,0-0.4-0.1-0.4-0.4
		c0-4.8,0-9.5,0-14.3C3.1,20,3.2,20,3.5,20c1.4,0,2.7,0,4.1,0c0.4,0,0.5,0.1,0.5,0.5C8.1,22.9,8.1,25.2,8.1,27.6
		C8.1,27.6,8.1,27.6,8.1,27.6z"/>
	<path class="st0" d="M5.6,12.7c2,0,3.3,1.7,2.6,3.5c-0.5,1.4-2.2,2.1-3.8,1.6c-1.3-0.4-2.1-1.9-1.6-3.3C3.2,13.4,4.3,12.7,5.6,12.7
		z"/>
</g>
</svg>
